<svg width="560" height="120" viewBox="0 0 560 120" fill="none" xmlns="http://www.w3.org/2000/svg">

  <!-- Dark bg mark -->
  <rect x="0" y="10" width="100" height="100" rx="18" fill="#0A0A0A"/>
  <g transform="translate(12, 22)">
    <polygon points="38,4 68,21 68,55 38,72 8,55 8,21" stroke="#D72B2B" stroke-width="2.5" fill="none"/>
    <polygon points="38,14 58,25.5 58,48.5 38,60 18,48.5 18,25.5" stroke="white" stroke-width="1" fill="none" opacity="0.18"/>
    <path d="M22 38 L29 33 L33 38 L38 33 L42 38 L46 33 L54 38" stroke="white" stroke-width="2.8" stroke-linecap="round" stroke-linejoin="round" fill="none"/>
    <circle cx="38" cy="38" r="4" fill="#D72B2B"/>
    <circle cx="38" cy="38" r="1.8" fill="white"/>
  </g>

  <!-- Red bg mark -->
  <rect x="120" y="10" width="100" height="100" rx="18" fill="#D72B2B"/>
  <g transform="translate(132, 22)">
    <polygon points="38,4 68,21 68,55 38,72 8,55 8,21" stroke="white" stroke-width="2.5" fill="none"/>
    <polygon points="38,14 58,25.5 58,48.5 38,60 18,48.5 18,25.5" stroke="white" stroke-width="1" fill="none" opacity="0.2"/>
    <path d="M22 38 L29 33 L33 38 L38 33 L42 38 L46 33 L54 38" stroke="white" stroke-width="2.8" stroke-linecap="round" stroke-linejoin="round" fill="none"/>
    <circle cx="38" cy="38" r="4" fill="rgba(0,0,0,0.3)"/>
    <circle cx="38" cy="38" r="1.8" fill="white"/>
  </g>

  <!-- Slate bg mark -->
  <rect x="240" y="10" width="100" height="100" rx="18" fill="#1A1F2E"/>
  <g transform="translate(252, 22)">
    <polygon points="38,4 68,21 68,55 38,72 8,55 8,21" stroke="#D72B2B" stroke-width="2.5" fill="none"/>
    <polygon points="38,14 58,25.5 58,48.5 38,60 18,48.5 18,25.5" stroke="white" stroke-width="1" fill="none" opacity="0.18"/>
    <path d="M22 38 L29 33 L33 38 L38 33 L42 38 L46 33 L54 38" stroke="white" stroke-width="2.8" stroke-linecap="round" stroke-linejoin="round" fill="none"/>
    <circle cx="38" cy="38" r="4" fill="#D72B2B"/>
    <circle cx="38" cy="38" r="1.8" fill="white"/>
  </g>

  <!-- Light bg mark -->
  <rect x="360" y="10" width="100" height="100" rx="18" fill="#F0EFE9"/>
  <g transform="translate(372, 22)">
    <polygon points="38,4 68,21 68,55 38,72 8,55 8,21" stroke="#D72B2B" stroke-width="2.5" fill="none"/>
    <polygon points="38,14 58,25.5 58,48.5 38,60 18,48.5 18,25.5" stroke="#0A0A0A" stroke-width="1" fill="none" opacity="0.12"/>
    <path d="M22 38 L29 33 L33 38 L38 33 L42 38 L46 33 L54 38" stroke="#0A0A0A" stroke-width="2.8" stroke-linecap="round" stroke-linejoin="round" fill="none"/>
    <circle cx="38" cy="38" r="4" fill="#D72B2B"/>
    <circle cx="38" cy="38" r="1.8" fill="white"/>
  </g>

  <!-- Mono mark -->
  <rect x="460" y="10" width="100" height="100" rx="18" fill="#0A0A0A"/>
  <g transform="translate(472, 22)">
    <polygon points="38,4 68,21 68,55 38,72 8,55 8,21" stroke="white" stroke-width="2.5" fill="none"/>
    <polygon points="38,14 58,25.5 58,48.5 38,60 18,48.5 18,25.5" stroke="white" stroke-width="1" fill="none" opacity="0.18"/>
    <path d="M22 38 L29 33 L33 38 L38 33 L42 38 L46 33 L54 38" stroke="white" stroke-width="2.8" stroke-linecap="round" stroke-linejoin="round" fill="none"/>
    <circle cx="38" cy="38" r="4" fill="white"/>
    <circle cx="38" cy="38" r="1.8" fill="#0A0A0A"/>
  </g>

</svg>
